<svg xmlns="http://www.w3.org/2000/svg" viewBox="0 0 200 200" role="img" aria-labelledby="markTitle">
  <title id="markTitle">SensorDyme mark</title>
  <defs>
    <clipPath id="sdHex">
      <path d="M86.144,28 Q100,20 113.856,28 L155.424,52 Q169.28,60 169.28,76 L169.28,124 Q169.28,140 155.424,148 L113.856,172 Q100,180 86.144,172 L44.576,148 Q30.72,140 30.72,124 L30.72,76 Q30.72,60 44.576,52 Z"/>
    </clipPath>
  </defs>
  <path d="M86.144,28 Q100,20 113.856,28 L155.424,52 Q169.28,60 169.28,76 L169.28,124 Q169.28,140 155.424,148 L113.856,172 Q100,180 86.144,172 L44.576,148 Q30.72,140 30.72,124 L30.72,76 Q30.72,60 44.576,52 Z" fill="#0A0A0A"/>
  <g clip-path="url(#sdHex)" fill="none" stroke="#FFFFFF" stroke-width="24" stroke-linecap="round">
    <path d="M60 98 C48 94 44 82 52 71 C60 62 74 62 84 68 L204 104"/>
    <path d="M140 102 C152 106 156 118 148 129 C140 138 126 138 116 132 L-4 96"/>
  </g>
</svg>
